<svg xmlns="http://www.w3.org/2000/svg" version="1.1" xmlns:xlink="http://www.w3.org/1999/xlink" xmlns:svgjs="http://svgjs.dev/svgjs" viewBox="0 0 600 600"><path d="M147.99616787238404 283.5357378084451C139.01413255337363 288.7752575634907 114.76263210578247 290.2722617545714 117.4572427014856 310.48184376547636C120.15185329718872 330.6914257763813 152.18778265916788 383.53574543783964 164.16383144660279 404.7932298738748C176.1398802340377 426.05071430990995 174.79257493618613 423.954896743992 189.31353542609497 438.02675038168724C203.83449591600382 452.0986040193826 224.49318477912232 479.19440886964287 251.2895943860559 489.22435170004644C278.0860039929895 499.2542945304498 321.3494800468632 505.8411373852676 350.09199306769654 498.2064073641087C378.83450608852985 490.57167734294995 406.6788054049361 463.3261532544085 423.7446725110559 443.4159715730936C440.8105396171757 423.5057898917784 444.2536599378137 398.0566932120909 452.4871957044153 378.74531727621854C460.72073147101685 359.43394134034617 472.6967853447148 340.87107004314566 473.1458871106653 327.54771595785917C473.5949888766158 314.2243618725727 473.2955809176314 308.38603128582145 455.1818063001184 298.8051927644998C437.0680316826054 289.2243542431782 395.3015623629439 274.70340138266386 364.46323940558716 270.0626848299295C333.6249164482304 265.4219682771951 302.33749935431763 269.4638867138813 270.1518685559778 270.96089344809354C237.96623775763794 272.45790018230576 191.70873806281372 276.948917841811 171.3494546155481 279.0447252352029C150.99017116828247 281.1405326285948 156.97820319139444 278.2962180533995 147.99616787238404 283.5357378084451C139.01413255337363 288.7752575634907 114.76263210578247 290.2722617545714 117.4572427014856 310.48184376547636 " fill="url(&quot;#ssshape-pattern1&quot;)" stroke-width="12" stroke="hsl(247, 26%, 95%)" transform="matrix(1.6248223902104986,0,0,1.6248223902104986,-185.16819280468366,-250.73999720801578)" fill-opacity="1" stroke-opacity="1"></path><defs><pattern id="ssshape-pattern1" width="70" height="70" viewBox="0 0 40 40" patternUnits="userSpaceOnUse" patternTransform="scale(3.3) rotate(0)">
  <rect width="100%" height="100%" fill="hsl(247, 26%, 92%)"></rect>
  <circle cx="20" cy="20" r="10" fill="hsl(230, 100%, 97%)" fill-opacity="0.5"></circle>
  <circle cx="26" cy="20" r="9" fill="hsl(230, 100%, 97%)"></circle>
  <circle cx="-14" cy="20" r="9" fill="hsl(230, 100%, 97%)"></circle>
</pattern></defs></svg>